<?xml version="1.0" encoding="UTF-8" standalone="no"?>
<!-- Created with Inkscape (http://www.inkscape.org/) -->

<svg
   xmlns:dc="http://purl.org/dc/elements/1.1/"
   xmlns:cc="http://creativecommons.org/ns#"
   xmlns:rdf="http://www.w3.org/1999/02/22-rdf-syntax-ns#"
   xmlns:svg="http://www.w3.org/2000/svg"
   xmlns="http://www.w3.org/2000/svg"
   xmlns:xlink="http://www.w3.org/1999/xlink"
   xmlns:sodipodi="http://sodipodi.sourceforge.net/DTD/sodipodi-0.dtd"
   xmlns:inkscape="http://www.inkscape.org/namespaces/inkscape"
   width="108.09661"
   height="158.85001"
   id="svg12121"
   version="1.1"
   inkscape:version="0.48.4 r9939"
   sodipodi:docname="linuxwireless-logo-final.svg"
   inkscape:export-filename="/home/johannes/linuxwireless-logo4.png"
   inkscape:export-xdpi="89.965263"
   inkscape:export-ydpi="89.965263">
  <defs
     id="defs12123">
    <linearGradient
       id="linearGradient5632">
      <stop
         style="stop-color:#336dc4;stop-opacity:1;"
         offset="0"
         id="stop5634" />
      <stop
         style="stop-color:#adc8ff;stop-opacity:1;"
         offset="1"
         id="stop5636" />
    </linearGradient>
    <linearGradient
       inkscape:collect="always"
       xlink:href="#linearGradient5632"
       id="linearGradient3785"
       gradientUnits="userSpaceOnUse"
       gradientTransform="matrix(0.4869565,0,0,0.4881579,42.6087,56.86003)"
       x1="581.9068"
       y1="17.360956"
       x2="776.46069"
       y2="566.37189" />
  </defs>
  <sodipodi:namedview
     id="base"
     pagecolor="#ffffff"
     bordercolor="#666666"
     borderopacity="1.0"
     inkscape:pageopacity="0.0"
     inkscape:pageshadow="2"
     inkscape:zoom="3.959798"
     inkscape:cx="20.771395"
     inkscape:cy="70.78478"
     inkscape:document-units="px"
     inkscape:current-layer="layer1"
     showgrid="false"
     fit-margin-top="0"
     fit-margin-left="0"
     fit-margin-right="0"
     fit-margin-bottom="0"
     inkscape:window-width="1920"
     inkscape:window-height="1053"
     inkscape:window-x="1366"
     inkscape:window-y="0"
     inkscape:window-maximized="1" />
  <metadata
     id="metadata12126">
    <rdf:RDF>
      <cc:Work
         rdf:about="">
        <dc:format>image/svg+xml</dc:format>
        <dc:type
           rdf:resource="http://purl.org/dc/dcmitype/StillImage" />
        <dc:title></dc:title>
      </cc:Work>
    </rdf:RDF>
  </metadata>
  <g
     inkscape:label="Layer 1"
     inkscape:groupmode="layer"
     id="layer1"
     transform="translate(-254.52312,-132.93719)">
    <g
       id="g12086"
       transform="matrix(1.1952764,0,0,1.1952764,-123.18422,76.468661)">
      <rect
         width="80"
         id="rect5610"
         inkscape:export-ydpi="90.031219"
         inkscape:export-filename="/home/david/Desktop/linux-wireless.png"
         style="fill:url(#linearGradient3785);fill-opacity:1"
         height="106"
         inkscape:export-xdpi="90.031219"
         ry="9.8934832"
         rx="9.8934832"
         x="316"
         y="59.5" />
      <path
         inkscape:connector-curvature="0"
         d="m 361.31676,63.10084 c -4.17923,0 -8.1338,1.07463 -11.62582,2.97079 1.67958,-0.35241 3.41568,-0.53367 5.19099,-0.53367 14.8568,0 26.90026,12.93597 26.90026,28.87181 0,8.03183 -3.05324,15.31152 -7.99379,20.54648 7.93492,-4.71533 13.30087,-13.79798 13.30087,-24.21105 0,-15.26249 -11.54348,-27.64436 -25.77251,-27.64436 z"
         id="path4363"
         inkscape:export-ydpi="90.031219"
         inkscape:export-filename="/home/david/Desktop/linux-wireless.png"
         style="opacity:0.75;fill:#f5f5f5;fill-opacity:1"
         inkscape:export-xdpi="90.031219" />
      <path
         inkscape:connector-curvature="0"
         d="m 351.47024,77.34234 c -1.3946,0 -2.75837,0.16114 -4.06324,0.48031 10.76359,0.98932 19.22158,10.68531 19.22158,22.4855 0,3.74612 -0.86363,7.27838 -2.3716,10.38887 3.32739,-3.53741 5.40659,-8.42173 5.40658,-13.83997 0,-10.77352 -8.14929,-19.51471 -18.19332,-19.51471 z"
         id="path4365"
         inkscape:export-ydpi="90.031219"
         inkscape:export-filename="/home/david/Desktop/linux-wireless.png"
         style="opacity:0.75;fill:#f5f5f5;fill-opacity:1"
         inkscape:export-xdpi="90.031219" />
      <path
         inkscape:connector-curvature="0"
         d="m 371.77214,47.24307 c -5.62112,0 -10.94007,1.44539 -15.63688,3.99576 2.25904,-0.474 4.59412,-0.71781 6.98194,-0.71781 19.98259,0 36.18121,17.39906 36.18121,38.83298 0,10.80293 -4.10665,20.59421 -10.75175,27.6353 10.67256,-6.3422 17.88985,-18.55847 17.88984,-32.56419 0,-20.52826 -15.52612,-37.18204 -34.66436,-37.18204 z"
         id="path4367"
         inkscape:export-ydpi="90.031219"
         inkscape:export-filename="/home/david/Desktop/linux-wireless.png"
         style="fill:#c9d6eb;fill-opacity:1"
         inkscape:export-xdpi="90.031219" />
      <path
         inkscape:connector-curvature="0"
         d="m 333.74035,81.71077 c -8.67613,1.67373 -13.84961,8.44614 -12.01892,19.27505 1.0779,6.37597 2.99433,14.95526 3.82677,19.46086 -1.88141,5.63257 -5.04273,10.49995 -7.23528,15.32639 -0.89288,1.96549 -1.88402,6.32484 -2.3064,9.45601 l 0,5.06711 c 0.79251,-2.59628 1.29117,-4.69163 1.99337,-8.26259 0.91478,-4.65212 1.19318,-5.42313 3.4846,-9.79947 0.73148,-1.39702 1.83718,-3.66697 2.46508,-5.05191 0.62792,-1.38489 1.43296,-3.10036 1.78034,-3.80414 0.34738,-0.70372 0.73599,-1.57353 0.86734,-1.9325 l 0.24347,-0.65431 -0.25868,-1.43036 c -0.13503,-0.79316 -0.65882,-3.39251 -1.17168,-5.7823 -2.52795,-11.77964 -2.94644,-14.56579 -2.76941,-17.97077 0.31166,-5.99452 3.32899,-9.90874 9.02342,-11.68632 1.99606,-0.62311 5.32644,-1.1098 7.4409,-1.08038 5.43084,0.07557 9.83065,2.1852 12.56889,5.99533 1.47891,2.05782 2.22812,4.1459 3.74328,10.54508 1.61123,6.80501 2.4462,9.33683 3.77371,11.45808 0.30809,0.49233 1.23675,1.78453 2.06945,2.87593 3.66394,4.80214 4.99093,6.29908 8.94734,10.02772 2.8472,2.6833 4.36127,4.35197 5.8736,6.43661 2.50699,3.45569 3.87048,6.10711 5.63013,11.00158 1.42972,3.97676 1.9104,6.12836 1.7499,7.76045 -0.16731,1.70153 -0.61363,2.7014 -2.2064,4.9606 -2.67097,3.7885 -4.8231,5.53315 -7.18222,5.7823 -1.067,0.11271 -1.78832,-0.034 -2.76941,-0.5478 -1.47473,-0.77225 -3.17279,-2.65997 -3.78893,-4.21499 l -0.10652,-0.28912 -0.63909,0.1826 c -1.06823,0.27964 -1.54929,0.71286 -1.85642,1.68904 -0.27922,0.88741 -0.25845,1.56353 0.15216,4.06283 0.36805,2.24021 0.41229,2.4069 0.95865,3.83457 0.15141,0.39565 0.28232,0.74791 0.41084,1.0956 l 17.74252,0 c 2.35437,0 4.53677,-0.67962 6.37574,-1.85643 -0.0619,-0.006 -0.11919,-0.009 -0.18259,-0.0152 -0.77104,-0.0727 -1.67631,-0.22067 -1.99337,-0.31955 -1.35533,-0.42256 -2.59635,-1.92777 -3.40852,-4.13891 -0.55331,-1.5064 -0.69837,-3.4119 -0.31954,-4.18455 0.3668,-0.7482 0.77063,-0.32626 1.14124,1.23254 0.40008,1.68268 0.68006,2.24128 1.67382,3.30199 1.0203,1.08909 2.36395,1.9637 4.53454,2.9368 0.0273,0.0123 0.0491,0.0183 0.0761,0.0304 0.21078,-0.18906 0.41595,-0.3859 0.61257,-0.58953 -1.60243,-0.8224 -2.75086,-1.79455 -3.51893,-2.91028 -2.41021,-1.87328 -0.59108,-6.06987 -4.48889,-6.86267 0.025,-0.0711 0.0519,-0.14116 0.0761,-0.21303 1.42055,-9.70712 -5.66716,-20.99445 -10.67333,-26.38553 -3.06978,-3.3058 -4.12861,-3.34746 -10.59943,-11.47329 -5.79093,-6.64211 -6.1477,-12.71542 -7.24092,-17.87512 -2.31123,-10.90854 -10.10521,-16.85573 -22.50095,-14.46444 z m 9.61035,5.96924 c -0.0511,0.0051 -0.10362,0.03269 -0.15217,0.04565 -0.42625,0.11385 -0.56355,0.52291 -0.53258,1.64339 0.0209,0.75756 -0.009,0.98454 -0.19781,1.29341 -0.25645,0.41841 -0.25927,0.4815 -0.0609,0.62388 0.25581,0.18357 0.55808,0.02408 1.26298,-0.62388 0.65927,-0.606 0.75444,-0.64579 1.52165,-0.83691 0.44785,-0.11157 0.84393,-0.27495 0.89778,-0.34998 0.16341,-0.22773 -0.32928,-0.74454 -1.14124,-1.20211 -0.81007,-0.45652 -1.24032,-0.62892 -1.59774,-0.59345 z m -0.30433,9.49514 c -0.30182,-0.0082 -0.63302,0.0016 -0.98908,0.01522 -0.33104,0.01265 -0.64661,0.04497 -0.92821,0.10651 -0.84482,0.18464 -1.46886,0.58626 -1.97816,1.26298 -0.73466,0.97619 -1.30452,3.1523 -1.21732,4.67149 0.0224,0.38994 0.0514,0.73425 0.0609,0.76082 0.009,0.0266 0.12518,0.59862 0.2739,1.26298 l 0.2739,1.18689 -0.28911,0.0609 c -0.16218,0.0267 -0.49184,0.001 -0.74562,-0.0456 -0.29438,-0.0546 -1.01896,-0.008 -1.99337,0.10651 -1.01783,0.11969 -1.57555,0.14655 -1.67382,0.0761 -0.0943,-0.0676 -0.21128,-0.43547 -0.31955,-1.01951 -0.54645,-2.9479 -1.18853,-4.34505 -2.41943,-5.20407 -1.34683,-0.93994 -3.16708,-0.54148 -4.12369,0.91299 -0.67797,1.03083 -0.82913,1.95357 -0.62388,3.65198 0.30208,2.49965 1.33011,4.88591 2.31292,5.38667 0.284,0.14467 0.30361,0.13549 0.51736,-0.0609 0.19977,-0.18353 0.66848,-1.23618 0.6391,-1.43036 -0.006,-0.0404 -0.17702,-0.10034 -0.39563,-0.15216 -0.76816,-0.1822 -1.22099,-0.64625 -1.70426,-1.73469 -0.35788,-0.80602 -0.51915,-2.16985 -0.31955,-2.61725 0.17023,-0.38163 0.74509,-0.93701 1.20211,-1.15646 0.37138,-0.17836 1.0616,-0.2093 1.52166,-0.0761 0.69125,0.20018 1.80864,1.70313 2.05424,2.76941 0.30847,1.33927 0.1811,1.67207 -1.35428,3.37808 -1.28922,1.43246 -2.2021,2.47195 -2.49552,2.86071 -0.36358,0.48178 -0.61028,1.41694 -0.53258,1.96294 0.0805,0.56555 0.39922,0.85747 1.23255,1.14125 0.36698,0.12497 0.82324,0.37176 1.01951,0.54779 0.19627,0.17604 0.58042,0.5453 0.86734,0.80648 1.05236,0.95792 1.96326,1.14791 3.84979,0.82169 1.94797,-0.33686 4.26496,-1.23935 6.64964,-2.55638 3.69389,-2.04007 4.365,-2.45192 4.59541,-2.83028 0.1235,-0.20282 0.32239,-0.51303 0.42606,-0.68475 0.37533,-0.62148 1.20842,-0.47391 1.32384,0.22825 0.11168,0.67929 -0.47179,1.11957 -3.865,2.95202 -0.82635,0.44619 -2.13894,1.26989 -2.92159,1.81077 -0.78264,0.54085 -1.81507,1.16479 -2.28248,1.39992 -0.84844,0.42681 -0.85008,0.41694 -3.68241,0.88256 -1.56037,0.25652 -2.85406,0.50086 -2.87593,0.53258 -0.12214,0.177 1.86314,1.37431 2.72376,1.64339 1.13123,0.35371 2.38661,0.18194 3.94109,-0.54779 1.36022,-0.63853 5.02377,-3.04973 7.04528,-4.62584 0.80505,-0.62766 1.22884,-0.77751 1.64339,-0.57823 0.31724,0.15249 0.41425,0.67228 0.19781,1.06516 -0.19384,0.35185 -0.79082,0.84836 -1.70426,1.39992 -0.89824,0.54243 -1.19166,0.79511 -3.14983,2.61725 -0.90222,0.83959 -2.07051,2.02592 -2.58681,2.64769 -1.27923,1.54057 -1.60813,1.75594 -3.0281,2.05423 -1.04828,0.22015 -1.15854,0.22918 -1.71947,0.0761 -0.32968,-0.0899 -0.85921,-0.33067 -1.18689,-0.5478 -0.81117,-0.53754 -2.33899,-1.93178 -2.92159,-2.6629 -0.59655,-0.74857 -1.81688,-1.70397 -1.94772,-1.52166 -0.0498,0.0693 -0.11206,0.528 -0.13695,1.0043 -0.0647,1.23806 -0.37466,2.51744 -1.27819,5.40188 -1.02442,3.2703 -1.04386,3.63839 -0.56301,6.46704 0.38959,2.29176 0.37715,2.32714 -0.3652,3.83458 -0.86876,1.7641 -1.29614,3.08725 -1.96294,6.07141 -0.47235,2.11395 -0.76087,3.977 -0.80647,5.18885 -0.0829,2.20478 0.19396,5.57151 0.63909,7.77566 0.37392,1.85142 0.16326,2.39343 -0.82169,2.11511 -0.70867,-0.20026 -2.14319,-1.36862 -2.73899,-2.20641 -1.09236,-1.53604 -1.62045,-4.11595 -1.39992,-6.96918 0.053,-0.68548 0.0406,-1.09031 -0.0304,-1.14125 -0.2498,-0.17924 -0.68237,1.33509 -0.76083,2.6629 -0.0679,1.14841 0.22983,3.26019 0.59345,4.23021 0.81711,2.17972 1.70158,3.35164 3.60632,4.778 1.27268,0.95303 5.21891,3.47872 7.77567,4.99104 0.78082,0.46183 1.32001,0.77866 1.90207,1.11081 l 31.48308,0 c -0.20538,-1.42242 -0.43007,-2.96357 -0.71518,-4.73236 -0.6645,-4.12256 -0.67411,-4.12771 -0.53258,-4.76278 0.33081,-1.48454 1.03523,-2.10714 2.83029,-2.52595 l 0.89777,-0.19782 -0.0152,-0.65431 c 0.0129,-1.92685 1.5767,-3.16053 4.53453,-3.63676 1.34328,-0.21631 2.01412,-0.19426 3.43895,0.16738 0.62748,0.15923 1.2082,0.2727 1.29341,0.25868 0.70246,-0.1155 -1.55148,-1.43569 -2.90637,-1.70425 -0.57684,-0.11435 -0.66357,-0.16517 -0.73039,-0.41085 -0.0419,-0.15405 -0.0176,-1.03515 0.0609,-1.94772 0.20671,-2.40528 0.15406,-3.70637 -0.2739,-5.8736 -0.54246,-2.74719 -1.34493,-4.4941 -3.36286,-7.31917 -1.80416,-2.52582 -3.45017,-4.33655 -5.00625,-5.53883 -0.82085,-0.63423 -1.95252,-1.26234 -2.40422,-1.32384 -0.29421,-0.0401 -0.31254,-0.0734 0.71518,0.95864 1.76365,1.77108 4.03735,4.44793 5.44753,6.39096 1.98845,2.73983 3.26753,5.76755 3.81936,9.05386 0.31242,1.86039 0.3283,2.7573 0.0761,4.01718 -0.31251,1.56102 -0.99524,2.58318 -1.96294,2.93679 -0.81798,0.29894 -2.11888,0.49044 -2.4803,0.34998 -0.64524,-0.25071 -0.72361,-0.48964 -1.50644,-4.74756 -0.39136,-2.12863 -0.7556,-3.97628 -0.80648,-4.10848 -0.0509,-0.1322 -0.1953,-0.62537 -0.33477,-1.08037 -0.77468,-2.52761 -2.09302,-4.69003 -5.26493,-8.68867 -1.40161,-1.76689 -1.70887,-2.26614 -2.43465,-3.89544 -1.59014,-3.56974 -2.90184,-5.63879 -4.53454,-7.19743 -1.62808,-1.55426 -2.24558,-2.33718 -2.67811,-3.37808 -0.37693,-0.90708 -0.435,-1.89137 -0.22825,-3.43895 0.21765,-1.62908 0.14561,-2.35412 -0.24347,-2.90636 -0.43532,-0.61783 -1.00664,-0.82064 -3.25634,-1.15646 -3.11768,-0.46537 -4.54879,-1.01947 -5.2345,-1.99337 -0.25294,-0.35928 -0.349,-0.60099 -0.48693,-1.43036 -0.28559,-1.7174 0.0298,-2.88187 0.98907,-3.60633 0.55858,-0.42181 1.95397,-0.63185 2.72377,-0.42606 0.75847,0.20269 1.20971,0.45915 1.61296,0.94343 0.32812,0.394 0.3658,0.50354 0.51736,1.476 0.13232,0.84916 0.15343,1.20561 0.0456,1.88686 -0.073,0.46186 -0.1245,0.93615 -0.10652,1.04994 0.0466,0.29486 0.50443,0.56418 1.08038,0.6391 1.07377,0.13973 1.5528,-0.47786 1.56731,-2.00859 0.0131,-1.38522 -0.52658,-3.09532 -1.61296,-5.09755 -1.06259,-1.95835 -1.95013,-2.60579 -4.06282,-2.6629 z m 0.0456,4.45846 c -0.0659,0.005 -0.13877,0.0157 -0.19782,0.0304 -0.48081,0.1203 -0.48213,0.46161 0,0.53258 0.64789,0.0954 1.4071,0.85378 1.70426,1.68904 0.19764,0.5555 0.26106,0.58118 0.57823,0.39563 0.38833,-0.22722 -0.0174,-1.66019 -0.60867,-2.14554 -0.41117,-0.33749 -1.01457,-0.53723 -1.476,-0.50214 z m -13.28407,2.46508 c -0.30772,0.0506 -0.41488,0.21514 -0.3652,0.51736 0.0337,0.20475 0.11711,0.35177 0.25868,0.41085 0.3013,0.1257 0.68254,0.67081 0.94343,1.35428 0.12118,0.31744 0.24262,0.60206 0.2739,0.63909 0.10029,0.11872 0.24612,0.0481 0.31955,-0.16738 0.10521,-0.30873 0.0122,-0.69622 -0.33477,-1.43036 -0.32436,-0.68637 -0.87796,-1.35961 -1.09559,-1.32384 z m 8.87126,2.98245 c 0.15531,0.006 0.24168,0.0476 0.33476,0.12173 0.17093,0.13606 0.20701,0.23009 0.16739,0.4565 -0.0641,0.36643 -0.42462,0.46269 -1.20211,0.31955 -0.67662,-0.1246 -0.87201,-0.22238 -0.913,-0.47172 -0.0277,-0.16875 0.0572,-0.20408 0.85213,-0.33476 0.37922,-0.0623 0.60552,-0.0971 0.76083,-0.0913 z m -5.0519,0.83691 c 0.26024,-0.0191 0.46005,0.0358 0.4565,0.1826 -0.003,0.1152 -0.12576,0.19492 -0.38042,0.25868 -0.31995,0.0801 -0.39994,0.15385 -0.47171,0.4565 -0.0955,0.40287 -0.27947,0.70128 -0.4565,0.73039 -0.066,0.0108 -0.2295,-0.0413 -0.3652,-0.10651 -0.33862,-0.1628 -0.42493,-0.6677 -0.15216,-0.94343 0.24618,-0.24882 0.70108,-0.44581 1.09559,-0.53258 0.0986,-0.0217 0.18715,-0.0393 0.2739,-0.0457 z m 19.97936,4.33672 c -0.16538,0.0272 -0.17814,0.4069 -0.0304,0.85213 0.0745,0.22437 0.38315,0.76065 0.66953,1.17167 0.53217,0.76372 1.23028,1.30159 2.37379,1.82599 0.56837,0.26067 0.79911,0.17131 0.98907,-0.36519 0.0845,-0.23884 0.17157,-0.64726 0.19782,-0.913 0.0699,-0.70833 -0.12921,-0.89203 -1.50644,-1.29341 -0.81395,-0.23726 -1.3319,-0.45594 -1.85642,-0.80648 -0.3993,-0.26683 -0.77915,-0.4812 -0.83691,-0.47171 z m -31.25484,24.08783 c -0.0289,3.6e-4 -0.0587,0.007 -0.0913,0.0152 -0.0372,0.01 -0.0793,0.041 -0.12173,0.0609 -0.31323,0.14663 -0.44404,0.4678 -0.50215,1.21733 -0.0458,0.59085 -0.13745,0.826 -0.50214,1.41514 -0.48805,0.78845 -0.51719,1.23919 -0.10652,1.17167 0.16476,-0.0271 0.41687,-0.32659 0.88256,-1.00429 0.79125,-1.15141 0.92733,-1.53073 0.8217,-2.23683 -0.0659,-0.44039 -0.17825,-0.64161 -0.38042,-0.6391 z m -3.75849,23.79871 c -0.18713,0.019 -0.39241,0.0621 -0.59345,0.12174 1.87758,2.80127 4.91766,4.75199 8.4452,5.15841 -3.36602,-3.28858 -5.76045,-5.01766 -7.33439,-5.26493 -0.15656,-0.0246 -0.33432,-0.0338 -0.51736,-0.0152 z"
         id="path4369"
         inkscape:export-ydpi="90.031219"
         inkscape:export-filename="/home/david/Desktop/linux-wireless.png"
         style="opacity:0.75;fill:#ffffff;fill-opacity:1;stroke:none"
         inkscape:export-xdpi="90.031219"
         sodipodi:nodetypes="cscsccsssscccssssssssssssssscccssscccssssssscccccscsscssssssssccssssscccssssssssssssssssssssssssssssssssssssssssssssssssssssssssssssccsscccsssssssssssssssssssssssssssssssssssssccsssssccssssssccsssssccsssssssccsssssssccsssssssccccsc" />
      <path
         d="m 68.5625,57.25 c -10.074931,0 -17.96875,7.893815 -17.96875,17.96875 l 0,168.5625 c 0,10.07494 7.893808,17.96874 17.96875,17.96875 l 115.71875,0 c 10.07493,0 17.96875,-7.89382 17.96875,-17.96875 l 0,-168.5625 C 202.25,65.143822 194.35617,57.25 184.28125,57.25 l -115.71875,0 z"
         inkscape:radius="-6.2991071"
         id="path5620"
         xlink:href="#rect4028"
         inkscape:href="#rect4028"
         style="fill:none;stroke:#ffffff;stroke-width:0.86656165;stroke-miterlimit:4;stroke-opacity:1;stroke-dasharray:none"
         inkscape:export-xdpi="90.031219"
         sodipodi:type="inkscape:offset"
         inkscape:export-ydpi="90.031219"
         transform="matrix(0.4813517,0,0,0.4841076,295.14662,35.28484)"
         inkscape:original="M 68.5625 50.9375 C 55.108215 50.9375 44.28125 61.764461 44.28125 75.21875 L 44.28125 243.78125 C 44.28125 257.23554 55.108211 268.06249 68.5625 268.0625 L 184.28125 268.0625 C 197.73554 268.0625 208.5625 257.23553 208.5625 243.78125 L 208.5625 75.21875 C 208.5625 61.764465 197.73553 50.9375 184.28125 50.9375 L 68.5625 50.9375 z "
         inkscape:export-filename="/home/david/Desktop/linux-wireless.png" />
      <g
         style="font-size:16.74775696px;font-style:normal;font-weight:normal;fill:#336dc4;fill-opacity:1;stroke:none;font-family:Yanone Kaffeesatz"
         id="text5622">
        <path
           d="m 319.51946,178.61715 2.88062,0 0,0.98812 c 0,0 0,0.28471 -0.26797,0.28471 l -3.98596,0 0,-11.33823 c 0,-0.3852 0.0335,-0.3852 1.37331,-0.3852 l 0,10.4506"
           style=""
           id="path2997" />
        <path
           d="m 324.88555,171.51611 c -1.10535,0 -1.39006,0 -1.39006,0.61966 l 0,7.75421 c 1.37331,0 1.39006,0 1.39006,-0.28471 l 0,-8.08916 m -1.40681,-2.88062 c -0.0168,0.78715 0.25122,1.03836 0.68666,1.05511 0.50243,0 0.75365,-0.40195 0.77039,-1.0886 0,-0.70341 -0.16747,-0.97137 -0.68665,-0.97137 -0.53593,0 -0.7704,0.40194 -0.7704,1.00486"
           style=""
           id="path2999" />
        <path
           d="m 326.42268,171.81757 c 0.65316,-0.30146 1.859,-0.55268 2.76338,-0.55268 2.02648,0 2.2442,0.7704 2.2442,3.08159 l 0,5.25879 c 0,0.28471 0.0168,0.28471 -1.40681,0.28471 l 0,-5.61049 c 0,-1.32308 -0.10049,-1.82551 -0.98812,-1.82551 -0.36845,0 -0.88763,0.0837 -1.25608,0.31821 l 0,6.83308 c 0,0.28471 0.0335,0.28471 -1.35657,0.28471 l 0,-8.07241"
           style=""
           id="path3001" />
        <path
           d="m 337.82476,179.60527 c -0.63641,0.3517 -1.59103,0.53593 -2.49541,0.53593 -2.2107,0 -2.51217,-1.02161 -2.51217,-3.08159 l 0,-5.27554 c 0,-0.26796 0,-0.26796 1.40682,-0.26796 l 0,5.61049 c 0,1.32308 0.16747,1.82551 1.0551,1.82551 0.36845,0 0.83739,-0.0837 1.18909,-0.31821 l 0,-6.84983 c 0,-0.26796 -0.0335,-0.26796 1.35657,-0.26796 l 0,8.08916"
           style=""
           id="path3003" />
        <path
           d="m 345.08701,171.51611 c -1.39006,0 -1.40681,0 -1.52405,0.23446 l -0.50243,0.90438 c -0.3517,0.65316 -0.75365,1.52405 -0.92113,1.90925 -0.16747,-0.40195 -0.56942,-1.27283 -0.88763,-1.90925 l -0.61966,-1.13884 c -1.52405,0 -1.5408,0 -1.42356,0.21772 l 2.02648,3.80174 -2.36144,4.35441 c 1.25608,0 1.44031,0 1.55754,-0.26796 l 0.46894,-0.82064 c 0.36845,-0.7369 0.82064,-1.72502 1.05511,-2.2442 0.23447,0.53593 0.70341,1.52405 1.0886,2.22745 l 0.61967,1.10535 c 1.64128,0 1.65803,0.0168 1.5073,-0.3182 l -2.22745,-4.1367 2.14371,-3.91897"
           style=""
           id="path3005" />
        <path
           d="m 349.56677,168.5685 c -0.0502,-0.26796 -0.0335,-0.40195 0.28472,-0.40195 l 1.1221,0 1.20583,6.54838 c 0.26797,1.50729 0.45219,2.5959 0.55268,3.66776 0.10049,-1.07186 0.21772,-2.16047 0.46894,-3.66776 l 1.03836,-5.57701 c 0.0502,-0.28471 0.0837,-0.41869 0.33495,-0.41869 l 0.0168,0 0.58617,0 0.067,0 0.31821,0 1.17234,5.9957 c 0.26797,1.50729 0.43545,2.5959 0.55268,3.66776 0.10049,-1.07186 0.23447,-2.16047 0.46894,-3.66776 l 1.07185,-6.14643 c 0.0503,-0.26796 0.10049,-0.40195 0.35171,-0.40195 l 1.15559,0 c 0,0 -2.07672,11.85742 -2.19395,11.85742 -0.48569,0.067 -0.60292,0.0837 -1.1221,0.0837 -0.40195,0 -0.63642,-0.36845 -0.75365,-0.95462 l -0.83739,-3.83523 c -0.18423,-0.88763 -0.3852,-2.6294 -0.51918,-3.785 -0.11724,1.1556 -0.31821,2.89737 -0.46894,3.76825 l -0.93787,4.72287 c -0.4187,0.0335 -0.68666,0.0502 -1.25609,0.0502 -0.3517,0 -0.56942,-0.4187 -0.68665,-1.02161 -0.58617,-2.78013 -1.99299,-10.4841 -1.99299,-10.4841"
           style=""
           id="path3007" />
        <path
           d="m 362.568,171.51611 c -1.10535,0 -1.39006,0 -1.39006,0.61966 l 0,7.75421 c 1.37331,0 1.39006,0 1.39006,-0.28471 l 0,-8.08916 m -1.40681,-2.88062 c -0.0168,0.78715 0.25122,1.03836 0.68666,1.05511 0.50243,0 0.75365,-0.40195 0.7704,-1.0886 0,-0.70341 -0.16748,-0.97137 -0.68666,-0.97137 -0.53593,0 -0.7704,0.40194 -0.7704,1.00486"
           style=""
           id="path3009" />
        <path
           d="m 364.10514,172.01854 c 0.77039,-0.55268 1.45705,-0.75365 2.27769,-0.75365 0.85413,0 1.17234,0.20097 1.17234,0.61967 0,0.23446 -0.0335,0.60292 -0.15073,0.88763 -0.25121,-0.13398 -0.48568,-0.20098 -0.80389,-0.20098 -0.36845,0 -0.78714,0.13399 -1.10535,0.45219 l -0.0168,6.58187 c 0,0.28471 0.0168,0.28471 -1.37331,0.28471 l 0,-7.87144"
           style=""
           id="path3011" />
        <path
           d="m 370.89923,171.26489 c -1.49055,0 -2.96435,0.51918 -2.96435,4.8736 0,3.41654 1.1221,4.00271 2.67964,4.00271 1.25608,0 2.31119,-0.40195 2.31119,-0.63641 0,-0.36845 -0.0335,-0.95463 -0.11724,-1.20584 -0.56942,0.3182 -1.23933,0.51918 -2.04322,0.51918 -0.90438,0 -1.37332,-0.30146 -1.42356,-2.32794 0.80389,0 2.34468,-0.0335 3.50028,-0.26796 0.13398,-0.60292 0.18422,-1.45706 0.18422,-2.21071 0,-1.79201 -0.72015,-2.74663 -2.12696,-2.74663 m -0.15073,1.18909 c 0.72015,0 0.93787,0.50243 0.95462,1.70827 0,0.31821 -0.0168,0.7369 -0.0837,1.03836 -0.58617,0.16748 -1.62453,0.20098 -2.27769,0.18423 0.10048,-2.32794 0.72015,-2.93086 1.40681,-2.93086"
           style=""
           id="path3013" />
        <path
           d="m 375.5941,179.60527 c 0,0.28471 0.0167,0.28471 -1.35657,0.28471 l 0,-11.68993 c 0,-0.61967 0.26796,-0.61967 1.35657,-0.61967 l 0,12.02489"
           style=""
           id="path3015" />
        <path
           d="m 379.86189,171.26489 c -1.49054,0 -2.96435,0.51918 -2.96435,4.8736 0,3.41654 1.1221,4.00271 2.67964,4.00271 1.25608,0 2.31119,-0.40195 2.31119,-0.63641 0,-0.36845 -0.0335,-0.95463 -0.11723,-1.20584 -0.56942,0.3182 -1.23934,0.51918 -2.04323,0.51918 -0.90438,0 -1.37331,-0.30146 -1.42356,-2.32794 0.80389,0 2.34469,-0.0335 3.50028,-0.26796 0.13399,-0.60292 0.18423,-1.45706 0.18423,-2.21071 0,-1.79201 -0.72016,-2.74663 -2.12697,-2.74663 m -0.15073,1.18909 c 0.72016,0 0.93788,0.50243 0.95463,1.70827 0,0.31821 -0.0168,0.7369 -0.0837,1.03836 -0.58617,0.16748 -1.62454,0.20098 -2.2777,0.18423 0.10049,-2.32794 0.72016,-2.93086 1.40681,-2.93086"
           style=""
           id="path3017" />
        <path
           d="m 385.49463,171.28164 c -1.69152,0 -2.57915,0.68666 -2.57915,1.90924 0,0.58617 0.26796,1.17234 0.92113,1.79201 l 1.69152,1.60779 c 0.50243,0.43544 0.66991,0.85413 0.66991,1.23933 0,0.7369 -0.46894,1.0886 -1.35657,1.0886 -0.65316,0 -1.17234,-0.11723 -1.65803,-0.40194 -0.16747,0.28471 -0.25121,0.66991 -0.25121,0.92112 0,0.4187 0.85413,0.70341 2.04322,0.70341 1.70827,0 2.76338,-0.83739 2.76338,-2.36143 0,-0.80389 -0.26796,-1.33982 -0.98811,-2.04323 l -1.65803,-1.5073 c -0.45219,-0.43544 -0.58617,-0.68666 -0.58617,-0.97137 0,-0.53593 0.55267,-0.80389 1.33982,-0.80389 0.63641,0 1.13884,0.15073 1.64128,0.45219 0.15073,-0.20097 0.30146,-0.55268 0.30146,-0.7704 0,-0.3182 -0.45219,-0.85413 -2.29445,-0.85413"
           style=""
           id="path3019" />
        <path
           d="m 391.28439,171.28164 c -1.69152,0 -2.57915,0.68666 -2.57915,1.90924 0,0.58617 0.26796,1.17234 0.92112,1.79201 l 1.69153,1.60779 c 0.50243,0.43544 0.66991,0.85413 0.66991,1.23933 0,0.7369 -0.46894,1.0886 -1.35657,1.0886 -0.65316,0 -1.17235,-0.11723 -1.65803,-0.40194 -0.16748,0.28471 -0.25122,0.66991 -0.25122,0.92112 0,0.4187 0.85414,0.70341 2.04323,0.70341 1.70827,0 2.76338,-0.83739 2.76338,-2.36143 0,-0.80389 -0.26796,-1.33982 -0.98812,-2.04323 l -1.65803,-1.5073 c -0.45218,-0.43544 -0.58617,-0.68666 -0.58617,-0.97137 0,-0.53593 0.55268,-0.80389 1.33982,-0.80389 0.63642,0 1.13885,0.15073 1.64128,0.45219 0.15073,-0.20097 0.30146,-0.55268 0.30146,-0.7704 0,-0.3182 -0.45219,-0.85413 -2.29444,-0.85413"
           style=""
           id="path3021" />
      </g>
    </g>
  </g>
</svg>
